<svg width="64" height="64" viewBox="0 0 64 64" fill="none" xmlns="http://www.w3.org/2000/svg">
<path d="M36 2H52C52.6 2 53 1.6 53 1C53 0.4 52.6 0 52 0H36C35.4 0 35 0.4 35 1C35 1.6 35.4 2 36 2Z" fill="#1C1F20"/>
<path d="M56 2H58C58.6 2 59 1.6 59 1C59 0.4 58.6 0 58 0H56C55.4 0 55 0.4 55 1C55 1.6 55.4 2 56 2Z" fill="#1C1F20"/>
<path d="M63 45C62.4 45 62 45.4 62 46V53C62 53.6 62.4 54 63 54C63.6 54 64 53.6 64 53V46C64 45.4 63.6 45 63 45Z" fill="#1C1F20"/>
<path d="M63 56C62.4 56 62 56.4 62 57V58C62 58.6 62.4 59 63 59C63.6 59 64 58.6 64 58V57C64 56.4 63.6 56 63 56Z" fill="#1C1F20"/>
<path d="M46 60H45V59C45 58.4 44.6 58 44 58C43.4 58 43 58.4 43 59V60H42C41.4 60 41 60.4 41 61C41 61.6 41.4 62 42 62H43V63C43 63.6 43.4 64 44 64C44.6 64 45 63.6 45 63V62H46C46.6 62 47 61.6 47 61C47 60.4 46.6 60 46 60Z" fill="#1C1F20"/>
<path d="M2 11V12C2 12.6 2.4 13 3 13C3.6 13 4 12.6 4 12V11H5C5.6 11 6 10.6 6 10C6 9.4 5.6 9 5 9H4V8C4 7.4 3.6 7 3 7C2.4 7 2 7.4 2 8V9H1C0.4 9 0 9.4 0 10C0 10.6 0.4 11 1 11H2Z" fill="#1C1F20"/>
<path d="M43 48V46.5L38.3 43H21C17.7 43 15 40.3 15 37V22H5C2.8 22 1 23.8 1 26V48C1 50.2 2.8 52 5 52H13V61L25 52H39C41.2 52 43 50.2 43 48Z" fill="#1C1F20"/>
<path d="M63 11C63 8.8 61.2 7 59 7H21C18.8 7 17 8.8 17 11V37C17 39.2 18.8 41 21 41H39L51 50V41H59C61.2 41 63 39.2 63 37V11ZM28 27C26.3 27 25 25.7 25 24C25 22.3 26.3 21 28 21C29.7 21 31 22.3 31 24C31 25.7 29.7 27 28 27ZM40 27C38.3 27 37 25.7 37 24C37 22.3 38.3 21 40 21C41.7 21 43 22.3 43 24C43 25.7 41.7 27 40 27ZM52 27C50.3 27 49 25.7 49 24C49 22.3 50.3 21 52 21C53.7 21 55 22.3 55 24C55 25.7 53.7 27 52 27Z" fill="#1C1F20"/>
</svg>
